HIERARCHY
ROOT Hips
{
	OFFSET 0.00000 0.00000 0.00000
	CHANNELS 6 Xposition Yposition Zposition Zrotation Yrotation Xrotation 
	JOINT LHipJoint
	{
		OFFSET 0 0 0
		CHANNELS 3 Zrotation Yrotation Xrotation
		JOINT LeftHip
		{
			OFFSET 1.58895 -1.83665 0.71753
			CHANNELS 3 Zrotation Yrotation Xrotation
			JOINT LeftKnee
			{
				OFFSET 2.50528 -6.88321 0.00000
				CHANNELS 3 Zrotation Yrotation Xrotation
				JOINT LeftAnkle
				{
					OFFSET 2.63244 -7.23257 0.00000
					CHANNELS 3 Zrotation Yrotation Xrotation
					JOINT LeftToe
					{
						OFFSET 0.23691 -0.65090 1.72750
						CHANNELS 3 Zrotation Yrotation Xrotation
						End Site
						{
							OFFSET 0.00000 -0.00000 0.92561
						}
					}
				}
			}
		}
	}
	JOINT RHipJoint
	{
		OFFSET 0 0 0
		CHANNELS 3 Zrotation Yrotation Xrotation
		JOINT RightHip
		{
			OFFSET -1.51435 -1.83665 0.71753
			CHANNELS 3 Zrotation Yrotation Xrotation
			JOINT RightKnee
			{
				OFFSET -2.54551 -6.99375 0.00000
				CHANNELS 3 Zrotation Yrotation Xrotation
				JOINT RightAnkle
				{
					OFFSET -2.66027 -7.30903 0.00000
					CHANNELS 3 Zrotation Yrotation Xrotation
					JOINT RightToe
					{
						OFFSET -0.22981 -0.63138 2.03959
						CHANNELS 3 Zrotation Yrotation Xrotation
						End Site
						{
							OFFSET -0.00000 -0.00000 1.07060
						}
					}
				}
			}
		}
	}
	JOINT lowerback
	{
		OFFSET 0 0 0
		CHANNELS 3 Zrotation Yrotation Xrotation
		JOINT Chest
		{
			OFFSET -0.02651 1.86275 -0.11152
			CHANNELS 3 Zrotation Yrotation Xrotation
			JOINT Chest2
			{
				OFFSET 0.01019 1.86224 0.04087
				CHANNELS 3 Zrotation Yrotation Xrotation
				JOINT lowerneck
				{
					OFFSET 0 0 0
					CHANNELS 3 Zrotation Yrotation Xrotation
					JOINT Neck
					{
						OFFSET -0.01926 1.80512 0.08867
						CHANNELS 3 Zrotation Yrotation Xrotation
						JOINT Head
						{
							OFFSET 0.05516 1.76451 -0.38475
							CHANNELS 3 Zrotation Yrotation Xrotation
							End Site
							{
								OFFSET 0.01592 1.82587 -0.14001
							}
						}
					}
				}
				JOINT LeftCollar
				{
					OFFSET 0 0 0
					CHANNELS 3 Zrotation Yrotation Xrotation
					JOINT LeftShoulder
					{
						OFFSET 3.47116 1.51376 0.14491
CHANNELS 3 Zrotation Xrotation Yrotation
						JOINT LeftElbow
						{
OFFSET 0 -4.780950 0.000000
CHANNELS 3 Zrotation Xrotation Yrotation
							JOINT LeftWrist
							{
OFFSET 0 -3.586150 -0.000000
CHANNELS 3 Zrotation Xrotation Yrotation
								JOINT lhand
								{
									OFFSET 0 0 0
CHANNELS 3 Zrotation Xrotation Yrotation
									JOINT LFingers
									{
OFFSET 0 -0.659810 0.000000
CHANNELS 3 Zrotation Xrotation Yrotation
										End Site
										{
OFFSET 0 -0.531960 0.000000
										}
									}
								}
								JOINT LThumb
								{
OFFSET 0 0.000000 0.000000
CHANNELS 3 Zrotation Xrotation Yrotation
									End Site
									{
OFFSET 0 -0.540080 0.540080
									}
								}
							}
						}
					}
				}
				JOINT RightCollar
				{
					OFFSET 0 0 0
					CHANNELS 3 Zrotation Yrotation Xrotation
					JOINT RightShoulder
					{
						OFFSET -3.31725 1.61216 0.35156
CHANNELS 3 Zrotation Xrotation Yrotation
						JOINT RightElbow
						{
OFFSET 0 -4.489130 0.000000
CHANNELS 3 Zrotation Xrotation Yrotation
							JOINT RightWrist
							{
OFFSET 0 -3.705100 0.000000
CHANNELS 3 Zrotation Xrotation Yrotation
								JOINT rhand
								{
									OFFSET 0 0 0
CHANNELS 3 Zrotation Xrotation Yrotation
									JOINT RFingers
									{
OFFSET 0 -0.449140 0.000000
CHANNELS 3 Zrotation Xrotation Yrotation
										End Site
										{
OFFSET 0 -0.362110 0.000000
										}
									}
								}
								JOINT RThumb
								{
OFFSET 0 0.000000 0.000000
CHANNELS 3 Zrotation Xrotation Yrotation
									End Site
									{
OFFSET 0 -0.367630 0.367630
									}
								}
							}
						}
					}
				}
			}
		}
	}
}
MOTION
Frames: 5
Frame Time: .0083333
-0.5320 18.6329 5.9041 -1.7092 11.5323 -2.0691 0.0000 0.0000 0.0000 -13.0180 -8.8447 -2.5087 1.6925 8.1939 23.3046 1.1236 -3.7188 -19.1434 8.7666 -16.6552 -55.2795 0.0000 0.0000 0.0000 0.0000 0.0000 0.0000 0.0000 0.0000 0.0000 -0.0000 -0.0000 0.0000 -0.0000 -0.0000 0.0000 6.3616 4.7410 4.2368 2.3958 6.8790 -2.9937 -1.6032 3.2269 -5.0466 -0.8311 -4.7311 -9.7616 -9.2176 -5.0970 11.0009 -3.0647 -3.1204 4.6856 0.0000 -0.0000 0.0000 1.4621 19.196 -36.3515 34.1847 -44.2211 14.2417 10.4125 -1.728 23.4523 0.0 0.0 0.0 -7.1250 0.0 0.0 -11.6095 6.5799 -10.4244 0.0000 -0.0000 0.0000 -52.221 -46.7753 15.8975 -157.4109 -33.6365 -113.0906 -17.9635 -8.1049 13.572 0.0 0.0 0.0 7.1250 0.0 -0.0 8.6615 44.0474 0.2053
-0.5333 18.6338 5.9033 -1.7779 11.6104 -2.0449 0.0000 0.0000 0.0000 -12.9425 -8.9560 -2.5494 1.6956 8.2009 23.3261 1.1265 -3.7239 -19.1684 8.7563 -16.6483 -55.2436 0.0000 0.0000 0.0000 0.0000 0.0000 0.0000 0.0000 0.0000 0.0000 -0.0000 -0.0000 0.0000 -0.0000 -0.0000 0.0000 6.2486 4.7203 4.0182 2.5224 6.8203 -2.8286 -1.3794 3.2166 -4.7802 -0.9884 -4.7025 -9.9053 -9.1950 -5.0318 10.9854 -3.0328 -3.0958 4.7137 -0.0000 -0.0000 0.0000 1.2598 19.0193 -35.9995 33.9135 -44.0205 14.0529 10.3788 -1.7334 23.9764 0.0 0.0 0.0 -7.1250 0.0 0.0 -11.6443 6.0663 -10.5745 -0.0000 -0.0000 0.0000 -52.6654 -46.9612 15.4958 -157.3863 -33.6636 -113.0771 -17.8787 -8.5156 13.3816 0.0 0.0 0.0 7.1250 0.0 -0.0 8.6955 43.8416 0.2506
-0.5336 18.6343 5.9019 -1.8009 11.6690 -2.0173 0.0000 0.0000 0.0000 -12.9206 -9.0494 -2.5728 1.6966 8.2032 23.3330 1.1270 -3.7254 -19.1719 8.7508 -16.6447 -55.2242 0.0000 0.0000 0.0000 0.0000 0.0000 0.0000 0.0000 0.0000 0.0000 -0.0000 -0.0000 0.0000 -0.0000 -0.0000 0.0000 5.9653 4.6634 3.4712 2.7294 6.6633 -2.4259 -0.9338 3.1800 -4.1125 -1.0783 -4.6379 -10.2061 -9.2505 -4.9249 10.7921 -3.0335 -3.0511 4.7114 -0.0000 -0.0000 0.0000 0.8633 18.4367 -35.2724 33.2964 -43.5567 13.6259 10.53 -1.9291 25.728 0.0 0.0 0.0 -7.1250 0.0 0.0 -11.6108 4.3215 -10.9342 -0.0000 -0.0000 0.0000 -53.5099 -47.5077 14.7343 -157.3466 -33.7076 -113.055 -17.6467 -8.8572 13.3171 0.0 0.0 0.0 7.1250 0.0 -0.0 8.8901 43.7495 0.2767
-0.5339 18.6351 5.8995 -1.7627 11.7544 -1.9775 0.0000 0.0000 0.0000 -12.9541 -9.0927 -2.6202 1.6963 8.2026 23.3310 1.1215 -3.7751 -19.1162 8.7656 -16.6545 -55.2761 0.0000 0.0000 0.0000 0.0000 0.0000 0.0000 0.0000 0.0000 0.0000 -0.0000 -0.0000 0.0000 -0.0000 -0.0000 0.0000 5.8500 4.6523 3.4730 2.7181 6.6407 -2.4024 -0.8809 3.1728 -4.1010 -1.1837 -4.6542 -10.2547 -9.1223 -4.9394 10.8544 -2.9811 -3.0571 4.7445 0.0000 0.0000 0.0000 0.8766 18.3992 -35.1267 33.1341 -43.4328 13.5142 10.5998 -1.9785 25.6483 0.0 0.0 0.0 -7.1250 0.0 0.0 -11.5657 4.3918 -10.8743 0.0000 0.0000 0.0000 -53.6592 -47.5147 14.6221 -157.3574 -33.6956 -113.061 -17.6885 -8.6046 13.4885 0.0 0.0 0.0 7.1250 0.0 -0.0 8.8909 43.9305 0.2367
-0.5346 18.6357 5.8964 -1.7005 11.8432 -1.9188 0.0000 0.0000 0.0000 -13.0065 -9.1318 -2.6965 1.6959 8.2016 23.3282 1.1157 -3.8274 -19.0577 8.7764 -16.6616 -55.3135 0.0000 0.0000 0.0000 0.0000 0.0000 0.0000 0.0000 0.0000 0.0000 -0.0000 -0.0000 0.0000 -0.0000 -0.0000 0.0000 5.7732 4.7353 3.4708 2.5699 6.7419 -2.4228 -0.9971 3.2225 -4.1058 -0.9667 -4.7645 -10.1738 -9.0621 -5.1339 10.8600 -3.0068 -3.1385 4.7184 0.0000 0.0000 0.0000 1.2467 18.3483 -35.2826 32.9471 -43.2893 13.3858 10.4186 -1.838 25.6521 0.0 0.0 0.0 -7.1250 0.0 0.0 -11.6750 4.4094 -10.9777 0.0000 0.0000 0.0000 -53.6514 -47.2599 14.4467 -157.4008 -33.6477 -113.085 -17.7592 -8.2939 13.7385 0.0 0.0 0.0 7.1250 0.0 -0.0 8.8838 44.1955 0.1779
